<svg width="200" height="200" viewBox="0 0 200 200" fill="none" xmlns="http://www.w3.org/2000/svg">
<path d="M100 90C107.957 90 115.587 86.8393 121.213 81.2132C126.839 75.5871 130 67.9565 130 60C130 52.0435 126.839 44.4129 121.213 38.7868C115.587 33.1607 107.957 30 100 30C92.0435 30 84.4129 33.1607 78.7868 38.7868C73.1607 44.4129 70 52.0435 70 60C70 67.9565 73.1607 75.5871 78.7868 81.2132C84.4129 86.8393 92.0435 90 100 90ZM60 80C60 85.3043 57.8929 90.3914 54.1422 94.1421C50.3914 97.8929 45.3044 100 40 100C34.6957 100 29.6086 97.8929 25.8579 94.1421C22.1072 90.3914 20 85.3043 20 80C20 74.6957 22.1072 69.6086 25.8579 65.8579C29.6086 62.1071 34.6957 60 40 60C45.3044 60 50.3914 62.1071 54.1422 65.8579C57.8929 69.6086 60 74.6957 60 80ZM14.9 153.26C13.1929 152.29 11.9145 150.711 11.32 148.84C9.55808 143.133 9.5396 137.031 11.267 131.313C12.9943 125.596 16.3889 120.524 21.0159 116.748C25.643 112.972 31.292 110.662 37.2394 110.116C43.1869 109.569 49.1622 110.81 54.4 113.68C43.6363 124.258 36.8993 138.259 35.35 153.27C35.12 155.49 35.21 157.69 35.6 159.81C28.3016 159.179 21.233 156.942 14.9 153.26ZM164.4 159.8C171.698 159.172 178.766 156.939 185.1 153.26C186.803 152.288 188.078 150.71 188.67 148.84C190.435 143.133 190.455 137.028 188.729 131.309C187.003 125.59 183.609 120.517 178.981 116.739C174.353 112.961 168.703 110.65 162.754 110.104C156.805 109.557 150.829 110.799 145.59 113.67C156.363 124.247 163.108 138.252 164.66 153.27C164.883 155.451 164.795 157.653 164.4 159.81V159.8ZM180 80C180 85.3043 177.893 90.3914 174.142 94.1421C170.391 97.8929 165.304 100 160 100C154.696 100 149.609 97.8929 145.858 94.1421C142.107 90.3914 140 85.3043 140 80C140 74.6957 142.107 69.6086 145.858 65.8579C149.609 62.1071 154.696 60 160 60C165.304 60 170.391 62.1071 174.142 65.8579C177.893 69.6086 180 74.6957 180 80ZM53.04 161.9C52.0538 161.017 51.2892 159.914 50.808 158.68C50.3268 157.447 50.1425 156.118 50.27 154.8C51.542 142.495 57.3304 131.098 66.5166 122.812C75.7027 114.527 87.6343 109.941 100.005 109.941C112.376 109.941 124.307 114.527 133.493 122.812C142.68 131.098 148.468 142.495 149.74 154.8C149.868 156.118 149.684 157.447 149.203 158.681C148.722 159.914 147.957 161.017 146.97 161.9C134.112 173.569 117.364 180.023 100 180C82.6395 180.022 65.8949 173.568 53.04 161.9Z" fill="white"/>
</svg>
