<svg width="200" height="200" viewBox="0 0 200 200" fill="none" xmlns="http://www.w3.org/2000/svg">
<path d="M125 9.375H6.25V128.125H75V193.75H193.75V75H125V9.375ZM57.9316 37.5L38.3176 93.4766H51.5625L54.7523 84.375H75V115.625H18.75V21.875H112.5V75H86.4578L73.3203 37.5H57.9316ZM72.118 71.875H59.132L65.625 53.3445L72.118 71.875ZM181.25 87.5V181.25H87.5V87.5H181.25Z" fill="white"/>
<path d="M123.997 143.938C125.192 145.858 126.509 147.7 127.938 149.453C123.407 151.897 118.261 153.121 112.5 153.125V165.625C121.93 165.625 130.355 163.122 137.5 158.272C144.645 163.122 153.07 165.625 162.5 165.625V153.125C156.751 153.125 151.605 151.9 147.063 149.45C148.492 147.698 149.808 145.857 151.003 143.938C154.606 138.08 157.255 131.688 158.852 125H165.625V112.5H143.75V103.125H131.25V112.5H109.375V125H116.148C117.745 131.688 120.394 138.08 123.997 143.938ZM145.91 125C144.617 129.326 142.765 133.465 140.402 137.312C139.519 138.731 138.55 140.094 137.5 141.394C136.526 140.19 135.622 138.931 134.793 137.624C132.334 133.691 130.415 129.445 129.088 125H145.91Z" fill="white"/>
</svg>
