<svg width="200" height="200" viewBox="0 0 200 200" fill="none" xmlns="http://www.w3.org/2000/svg">
<path d="M109.374 9.375V25H121.686C125.486 25 129.224 26 132.524 27.8875L148.649 37.0875C149.124 37.3625 149.649 37.5 150.199 37.5H178.124C180.61 37.5 182.995 38.4877 184.753 40.2459C186.511 42.004 187.499 44.3886 187.499 46.875C187.499 49.3614 186.511 51.746 184.753 53.5041C182.995 55.2623 180.61 56.25 178.124 56.25H172.786L199.174 114.9C199.954 116.635 200.187 118.566 199.843 120.437C199.499 122.308 198.595 124.03 197.249 125.375L190.624 118.75L197.236 125.388L197.224 125.412L197.199 125.438L197.124 125.513L197.049 125.575L196.924 125.7L196.361 126.2C193.736 128.4 190.849 130.287 187.786 131.825C181.949 134.75 173.499 137.5 162.499 137.5C153.743 137.603 145.084 135.66 137.211 131.825C134.145 130.288 131.267 128.401 128.636 126.2L128.074 125.7L127.874 125.513L127.799 125.438L127.749 125.388V125.375C126.403 124.03 125.498 122.308 125.154 120.437C124.811 118.566 125.044 116.635 125.824 114.9L152.224 56.25H150.199C146.386 56.25 142.649 55.2625 139.349 53.3625L123.224 44.1625C122.753 43.8897 122.218 43.7474 121.674 43.75H109.374V162.5H140.624C143.11 162.5 145.495 163.488 147.253 165.246C149.011 167.004 149.999 169.389 149.999 171.875C149.999 174.361 149.011 176.746 147.253 178.504C145.495 180.262 143.11 181.25 140.624 181.25H59.3738C56.8874 181.25 54.5029 180.262 52.7447 178.504C50.9865 176.746 49.9988 174.361 49.9988 171.875C49.9988 169.389 50.9865 167.004 52.7447 165.246C54.5029 163.488 56.8874 162.5 59.3738 162.5H90.6238V43.75H78.3238C77.7797 43.7474 77.2447 43.8897 76.7738 44.1625L60.6613 53.375C57.3488 55.25 53.6113 56.25 49.7988 56.25H47.7738L74.1738 114.9C74.9536 116.635 75.1871 118.566 74.8433 120.437C74.4994 122.308 73.5946 124.03 72.2488 125.375L65.6238 118.75L72.2363 125.388L72.2238 125.412L72.1988 125.438L72.1238 125.513L71.9238 125.7L71.3613 126.2C68.7363 128.4 65.8488 130.287 62.7863 131.825C56.9488 134.75 48.4988 137.5 37.4988 137.5C28.7428 137.603 20.0836 135.66 12.2113 131.825C9.14488 130.288 6.26727 128.401 3.63633 126.2L3.07383 125.7L2.87383 125.513L2.79883 125.438L2.74883 125.388V125.375C1.40311 124.03 0.498241 122.308 0.154411 120.437C-0.189418 118.566 0.0440581 116.635 0.823833 114.9L27.2238 56.25H21.8738C19.3874 56.25 17.0029 55.2623 15.2447 53.5041C13.4866 51.746 12.4988 49.3614 12.4988 46.875C12.4988 44.3886 13.4866 42.004 15.2447 40.2459C17.0029 38.4877 19.3874 37.5 21.8738 37.5H49.7988C50.3469 37.5025 50.8859 37.3602 51.3613 37.0875L67.4613 27.875C70.7738 26 74.5113 25 78.3238 25H90.6238V9.375C90.6238 6.8886 91.6115 4.50403 93.3697 2.74587C95.1279 0.98772 97.5124 0 99.9988 0C102.485 0 104.87 0.98772 106.628 2.74587C108.386 4.50403 109.374 6.8886 109.374 9.375ZM146.186 115.338C149.749 117.025 155.161 118.75 162.499 118.75C169.836 118.75 175.249 117.025 178.811 115.338L162.499 79.0875L146.186 115.338ZM21.1863 115.338C24.7488 117.025 30.1613 118.75 37.4988 118.75C44.8363 118.75 50.2488 117.025 53.8113 115.338L37.4988 79.0875L21.1863 115.338Z" fill="white"/>
</svg>
