<svg width="201" height="200" viewBox="0 0 201 200" fill="none" xmlns="http://www.w3.org/2000/svg">
<path d="M151.917 37H140.75C132.333 37 125.5 43.8333 125.5 52.25V56L46.3333 73V68.75C46.3333 65.3333 43.5 62.5 40.0833 62.5C36.6666 62.5 33.8333 65.3333 33.8333 68.75V127.083C33.8333 130.5 36.6666 133.333 40.0833 133.333C43.5 133.333 46.3333 130.5 46.3333 127.083V121.833L125.5 138.833V142.583C125.5 151 132.333 157.833 140.75 157.833H151.917C160.333 157.833 167.167 151 167.167 142.583V52.25C167.167 43.8333 160.333 37 151.917 37ZM46.3333 109V85.75L125.5 68.75V126L46.3333 109ZM154.667 142.583C154.667 144.083 153.417 145.333 151.917 145.333H140.75C139.25 145.333 138 144.083 138 142.583V52.25C138 50.75 139.25 49.5 140.75 49.5H151.917C153.417 49.5 154.667 50.75 154.667 52.25V142.583ZM108.583 146.917C107.082 151.631 104.114 155.743 100.111 158.651C96.1083 161.559 91.2809 163.112 86.3333 163.083C73.5 163.083 63 152.75 63 140.167C63 139.25 63 138.25 63.1666 137.333C63.5833 133.917 66.75 131.5 70.1666 131.917C73.5833 132.333 76 135.417 75.5833 138.833V140.083C75.5833 145.833 80.4166 150.5 86.4166 150.5C91.1666 150.5 95.3333 147.5 96.75 143.083C97.75 139.75 101.333 137.917 104.583 139C107.917 140 109.667 143.583 108.667 146.833L108.583 146.917Z" fill="white"/>
</svg>
