<svg width="200" height="200" viewBox="0 0 200 200" fill="none" xmlns="http://www.w3.org/2000/svg">
<g clip-path="url(#clip0_55_582)">
<path d="M95.8332 25C104.025 25.0006 111.992 27.6826 118.516 32.6362C125.041 37.5898 129.765 44.5428 131.967 52.4333L132.4 54.1417L147.983 50.25C149.122 49.9665 150.308 49.9268 151.464 50.1335C152.619 50.3403 153.718 50.7887 154.688 51.4496C155.658 52.1105 156.477 52.9688 157.093 53.9684C157.708 54.968 158.105 56.0862 158.258 57.25L158.333 58.3333V73.4167C163.031 77.9211 166.881 83.2333 169.7 89.1L170.85 91.6667H175C177.041 91.6669 179.011 92.4163 180.536 93.7726C182.062 95.129 183.036 96.9979 183.275 99.025L183.333 100V125C183.333 126.372 182.995 127.722 182.348 128.932C181.701 130.141 180.766 131.172 179.625 131.933L178.725 132.45L168.992 137.325C165.007 145.034 159.235 151.677 152.158 156.7L150 158.15V166.667C150 168.708 149.25 170.678 147.894 172.203C146.538 173.728 144.669 174.703 142.642 174.942L141.667 175H116.667C114.625 175 112.655 174.25 111.13 172.894C109.605 171.538 108.63 169.669 108.392 167.642L108.333 166.667H99.9998C99.9996 168.708 99.2502 170.678 97.8939 172.203C96.5376 173.728 94.6686 174.703 92.6415 174.942L91.6665 175H66.6665C64.6254 175 62.6554 174.25 61.1301 172.894C59.6048 171.538 58.6303 169.669 58.3915 167.642L58.3332 166.667V158.15C52.313 154.301 47.1128 149.301 43.0313 143.436C38.9497 137.571 36.0674 130.957 34.5498 123.975C29.6359 122.512 25.29 119.576 22.1003 115.562C18.9106 111.548 17.0312 106.651 16.7165 101.533L16.6665 100V95.8333C16.6689 93.7093 17.4822 91.6664 18.9402 90.1219C20.3983 88.5775 22.3911 87.648 24.5115 87.5236C26.6318 87.3991 28.7197 88.0889 30.3484 89.4522C31.9772 90.8155 33.024 92.7492 33.2748 94.8583L33.3332 95.8333V100C33.3332 101.233 33.5998 102.408 34.0832 103.458C35.3551 95.9559 38.1926 88.8055 42.4109 82.4722C46.6292 76.139 52.1338 70.765 58.5665 66.7C57.9752 61.454 58.4983 56.1423 60.1014 51.1125C61.7045 46.0826 64.3516 41.4478 67.8694 37.5115C71.3872 33.5752 75.6965 30.426 80.5154 28.27C85.3342 26.1139 90.554 24.9996 95.8332 25ZM141.667 69L118.683 74.75L117.683 74.9417L116.667 75H87.4998C79.0738 74.9944 70.8914 77.8268 64.2719 83.0405C57.6525 88.2541 52.9819 95.5451 51.0131 103.738C49.0443 111.931 49.8921 120.548 53.4199 128.2C56.9476 135.852 62.9496 142.093 70.4582 145.917C71.668 146.535 72.7082 147.44 73.4881 148.553C74.2681 149.665 74.7642 150.952 74.9332 152.3L74.9998 153.333V158.333H83.3332C83.3334 156.292 84.0828 154.322 85.4391 152.797C86.7955 151.272 88.6644 150.297 90.6915 150.058L91.6665 150H116.667C118.708 150 120.678 150.75 122.203 152.106C123.728 153.462 124.703 155.331 124.942 157.358L125 158.333H133.333V153.333C133.334 151.799 133.758 150.294 134.56 148.986C135.361 147.677 136.508 146.615 137.875 145.917C145.522 142.002 151.602 135.593 155.108 127.75C155.733 126.347 156.734 125.144 158 124.275L158.992 123.692L166.667 119.85V108.333H164.942C163.127 108.333 161.362 107.74 159.915 106.645C158.468 105.55 157.418 104.013 156.925 102.267C154.84 94.9359 150.573 88.4134 144.692 83.5667C143.06 82.2184 142.002 80.2997 141.733 78.2L141.667 77.1417V69.0083V69ZM133.333 91.6667C135.543 91.6667 137.663 92.5446 139.226 94.1074C140.789 95.6702 141.667 97.7899 141.667 100C141.667 102.21 140.789 104.33 139.226 105.893C137.663 107.455 135.543 108.333 133.333 108.333C131.123 108.333 129.003 107.455 127.441 105.893C125.878 104.33 125 102.21 125 100C125 97.7899 125.878 95.6702 127.441 94.1074C129.003 92.5446 131.123 91.6667 133.333 91.6667ZM95.8332 41.6667C90.7856 41.6666 85.9097 43.4992 82.1116 46.8237C78.3134 50.1482 75.8515 54.7385 75.1832 59.7417C79.2216 58.8039 83.354 58.3313 87.4998 58.3333H115.642L116.225 58.1917C115.237 53.5163 112.671 49.3228 108.959 46.3142C105.246 43.3055 100.612 41.6647 95.8332 41.6667Z" fill="white"/>
</g>
<defs>
<clipPath id="clip0_55_582">
<rect width="200" height="200" fill="white"/>
</clipPath>
</defs>
</svg>
