<svg width="200" height="200" viewBox="0 0 200 200" fill="none" xmlns="http://www.w3.org/2000/svg">
<path d="M33.3333 129.167V49.9999C33.3333 42.6388 35.2444 36.7693 39.0667 32.3916C42.8889 28.0138 47.9222 24.6805 54.1667 22.3916C60.4167 20.1027 67.5361 18.5749 75.525 17.8082C83.5139 17.0416 91.6722 16.661 100 16.6666C109.167 16.6666 117.814 17.0499 125.942 17.8166C134.069 18.5832 141.153 20.111 147.192 22.3999C153.231 24.6888 157.986 28.0221 161.458 32.3999C164.931 36.7777 166.667 42.6443 166.667 49.9999V129.167C166.667 137.361 163.856 144.272 158.233 149.9C152.611 155.528 145.7 158.339 137.5 158.333L150 170.833V175H133.333L116.667 158.333H83.3333L66.6667 175H50V170.833L62.5 158.333C54.3056 158.333 47.3944 155.522 41.7667 149.9C36.1389 144.278 33.3278 137.367 33.3333 129.167ZM100 33.3332C85.2778 33.3332 74.5139 34.2027 67.7083 35.9416C60.9028 37.6805 56.25 39.5888 53.75 41.6666H147.083C145 39.3055 140.522 37.3249 133.65 35.7249C126.778 34.1249 115.561 33.3277 100 33.3332ZM50 83.3332H91.6667V58.3332H50V83.3332ZM137.5 99.9999H50H150H137.5ZM108.333 83.3332H150V58.3332H108.333V83.3332ZM70.8333 133.333C74.4444 133.333 77.4306 132.153 79.7917 129.792C82.1528 127.43 83.3333 124.444 83.3333 120.833C83.3333 117.222 82.1528 114.236 79.7917 111.875C77.4306 109.514 74.4444 108.333 70.8333 108.333C67.2222 108.333 64.2361 109.514 61.875 111.875C59.5139 114.236 58.3333 117.222 58.3333 120.833C58.3333 124.444 59.5139 127.43 61.875 129.792C64.2361 132.153 67.2222 133.333 70.8333 133.333ZM129.167 133.333C132.778 133.333 135.764 132.153 138.125 129.792C140.486 127.43 141.667 124.444 141.667 120.833C141.667 117.222 140.486 114.236 138.125 111.875C135.764 109.514 132.778 108.333 129.167 108.333C125.556 108.333 122.569 109.514 120.208 111.875C117.847 114.236 116.667 117.222 116.667 120.833C116.667 124.444 117.847 127.43 120.208 129.792C122.569 132.153 125.556 133.333 129.167 133.333ZM62.5 141.667H137.5C141.111 141.667 144.097 140.486 146.458 138.125C148.819 135.764 150 132.778 150 129.167V99.9999H50V129.167C50 132.778 51.1806 135.764 53.5417 138.125C55.9028 140.486 58.8889 141.667 62.5 141.667ZM100 41.6666H147.083H53.75H100Z" fill="white"/>
</svg>
