<svg width="80" height="81" viewBox="0 0 80 81" fill="none" xmlns="http://www.w3.org/2000/svg">
<path d="M65 8H22.5C19.8478 8 17.3043 9.05357 15.4289 10.9289C13.5536 12.8043 12.5 15.3478 12.5 18V70.5C12.5 71.163 12.7634 71.7989 13.2322 72.2678C13.7011 72.7366 14.337 73 15 73H60C60.663 73 61.2989 72.7366 61.7678 72.2678C62.2366 71.7989 62.5 71.163 62.5 70.5C62.5 69.837 62.2366 69.2011 61.7678 68.7322C61.2989 68.2634 60.663 68 60 68H17.5C17.5 66.6739 18.0268 65.4021 18.9645 64.4645C19.9021 63.5268 21.1739 63 22.5 63H65C65.663 63 66.2989 62.7366 66.7678 62.2678C67.2366 61.7989 67.5 61.163 67.5 60.5V10.5C67.5 9.83696 67.2366 9.20107 66.7678 8.73223C66.2989 8.26339 65.663 8 65 8ZM62.5 58H22.5C20.7442 57.9976 19.0191 58.4602 17.5 59.3406V18C17.5 16.6739 18.0268 15.4021 18.9645 14.4645C19.9021 13.5268 21.1739 13 22.5 13H62.5V58Z" fill="white"/>
</svg>
