<svg width="80" height="81" viewBox="0 0 80 81" fill="none" xmlns="http://www.w3.org/2000/svg">
<path d="M50 4.25H2.5V51.75H30V78H77.5V30.5H50V4.25ZM23.1727 15.5L15.327 37.8906H20.625L21.9009 34.25H30V46.75H7.5V9.25H45V30.5H34.5831L29.3281 15.5H23.1727ZM28.8472 29.25H23.6528L26.25 21.8378L28.8472 29.25ZM72.5 35.5V73H35V35.5H72.5Z" fill="white"/>
<path d="M49.5988 58.075C50.077 58.8431 50.6035 59.5799 51.1752 60.2812C49.3627 61.2588 47.3043 61.7483 45 61.75V66.75C48.772 66.75 52.1422 65.7487 55 63.8088C57.8578 65.7487 61.228 66.75 65 66.75V61.75C62.7005 61.75 60.6422 61.26 58.825 60.2802C59.3966 59.5792 59.9231 58.8427 60.4012 58.075C61.8423 55.7322 62.9021 53.1753 63.5409 50.5H66.25V45.5H57.5V41.75H52.5V45.5H43.75V50.5H46.4591C47.0979 53.1753 48.1577 55.7322 49.5988 58.075ZM58.3641 50.5C57.8468 52.2304 57.1062 53.886 56.1609 55.425C55.8078 55.9924 55.4201 56.5376 55 57.0575C54.6105 56.576 54.249 56.0725 53.9172 55.5495C52.9335 53.9763 52.166 52.2779 51.6353 50.5H58.3641Z" fill="white"/>
</svg>
