<svg width="80" height="81" viewBox="0 0 80 81" fill="none" xmlns="http://www.w3.org/2000/svg">
<path d="M65 45.5H60L55 55.2425L50 45.5H45L52.2625 58L45 70.5H50L55 61.0025L60 70.5H65L57.745 58L65 45.5ZM47.5 15.5V10.5H34.7825C33.533 10.4941 32.3271 10.9586 31.4044 11.8012C30.4817 12.6437 29.9099 13.8026 29.8025 15.0475L28.175 33H17.5V38H27.7175L25.2175 65.5H12.5V70.5H25.2175C26.467 70.5059 27.6729 70.0414 28.5956 69.1988C29.5183 68.3563 30.0901 67.1974 30.1975 65.9525L32.7375 38H45V33H33.1925L34.7825 15.5H47.5Z" fill="white"/>
</svg>
