<svg width="80" height="81" viewBox="0 0 80 81" fill="none" xmlns="http://www.w3.org/2000/svg">
<path d="M79.2953 41.0703C79.2953 41.3593 79.2344 41.6026 79.1128 41.8004C79.0367 41.9676 78.8998 42.0969 78.7021 42.1882C78.5196 42.2642 78.3143 42.3174 78.0862 42.3479C77.8733 42.3631 77.6527 42.3707 77.4246 42.3707C77.2117 42.3707 77.0292 42.3783 76.8771 42.3935C76.5121 42.3935 76.1471 42.4087 75.7821 42.4391C75.4171 42.4695 75.052 42.5 74.687 42.5304C74.5045 42.7129 74.2764 42.8041 74.0026 42.8041C73.8658 42.8041 73.6985 42.7813 73.5008 42.7357C73.3183 42.6749 73.1358 42.5988 72.9532 42.5076C72.7707 42.4011 72.6187 42.2794 72.497 42.1425C72.3753 41.9905 72.3145 41.8308 72.3145 41.6635C72.3145 41.481 72.3601 41.3061 72.4514 41.1388C72.5578 40.9563 72.6491 40.7814 72.7251 40.6141C72.9076 40.2339 73.1358 39.7548 73.4095 39.1769C73.6833 38.5989 73.9646 37.9754 74.2536 37.3062C74.5578 36.637 74.8543 35.945 75.1433 35.2302C75.4323 34.5154 75.6908 33.8234 75.9189 33.1542C76.1471 32.4698 76.3296 31.8387 76.4665 31.2607C76.6185 30.6676 76.6946 30.1657 76.6946 29.7551C76.6946 29.6182 76.687 29.4509 76.6718 29.2532C76.6718 29.0555 76.649 28.8654 76.6033 28.6829C76.5577 28.5004 76.4817 28.3483 76.3752 28.2266C76.2839 28.0897 76.1471 28.0213 75.9646 28.0213C75.706 28.0213 75.4627 28.1125 75.2345 28.2951C75.0216 28.4776 74.8239 28.6981 74.6414 28.9566C74.4741 29.2 74.3296 29.4661 74.208 29.7551C74.1015 30.0441 74.0179 30.2874 73.957 30.4851C73.881 30.698 73.7973 30.8729 73.7061 31.0098C73.6148 31.1467 73.4399 31.2151 73.1814 31.2151C73.0141 31.2151 72.8392 31.1923 72.6567 31.1467C72.4894 31.1011 72.3297 31.0326 72.1776 30.9414C72.0407 30.8501 71.9191 30.736 71.8126 30.5992C71.7213 30.4623 71.6757 30.3026 71.6757 30.1201C71.6757 29.892 71.7213 29.679 71.8126 29.4813C71.9039 29.2684 72.0103 29.0555 72.132 28.8426C72.5274 28.0669 73.0445 27.4434 73.6833 26.9719C74.322 26.4852 75.0977 26.2419 76.0102 26.2419C76.5729 26.2419 77.052 26.3331 77.4474 26.5156C77.8428 26.6981 78.1622 26.9491 78.4056 27.2685C78.6641 27.5878 78.8542 27.9681 78.9759 28.4091C79.0976 28.8502 79.1584 29.3292 79.1584 29.8463C79.1584 30.6524 79.0291 31.5269 78.7706 32.4698C78.512 33.3976 78.1926 34.3405 77.8124 35.2986C77.4322 36.2568 77.0292 37.1997 76.6033 38.1275C76.1927 39.04 75.8277 39.8841 75.5083 40.6597C76.0102 40.5837 76.5121 40.5152 77.014 40.4544C77.5159 40.3783 78.0177 40.3403 78.5196 40.3403C78.7478 40.3403 78.9303 40.4012 79.0671 40.5228C79.2192 40.6293 79.2953 40.8118 79.2953 41.0703Z" fill="white"/>
<path d="M71.8356 50.8343C71.8356 51.1537 71.7823 51.4807 71.6759 51.8153C71.5694 52.1499 71.4477 52.4693 71.3109 52.7734C71.1284 53.2145 70.9078 53.6479 70.6493 54.0738C70.3907 54.4844 70.0942 54.857 69.7596 55.1916C69.425 55.511 69.0448 55.7695 68.6189 55.9673C68.1931 56.165 67.714 56.2638 67.1817 56.2638C66.2388 56.2638 65.4555 56.0281 64.832 55.5566C64.2084 55.0852 63.7141 54.492 63.3491 53.7772C62.9841 53.0624 62.7256 52.2792 62.5735 51.4275C62.4366 50.5758 62.3682 49.7697 62.3682 49.0093C62.3682 48.4466 62.391 47.785 62.4366 47.0246C62.4822 46.2489 62.5659 45.4505 62.6875 44.6292C62.8244 43.8079 63.0145 42.9943 63.2579 42.1882C63.5164 41.3821 63.8434 40.6673 64.2388 40.0438C64.6343 39.405 65.1133 38.8879 65.6761 38.4925C66.254 38.0971 66.9384 37.8994 67.7292 37.8994C67.8965 37.8994 68.1399 37.9298 68.4592 37.9906C68.7786 38.0514 69.0904 38.1427 69.3946 38.2644C69.714 38.3708 69.9877 38.5229 70.2158 38.7206C70.4592 38.9031 70.5808 39.116 70.5808 39.3594C70.5808 39.5875 70.4744 39.7624 70.2615 39.8841C70.0638 40.0058 69.8204 40.097 69.5314 40.1578C69.2577 40.2035 68.9687 40.2339 68.6646 40.2491C68.3756 40.2491 68.1399 40.2491 67.9574 40.2491H67.5467C67.1209 40.6293 66.7711 41.192 66.4973 41.9373C66.2236 42.6673 66.0106 43.4505 65.8586 44.287C65.7065 45.1235 65.6 45.9523 65.5392 46.7736C65.4783 47.5797 65.4479 48.2413 65.4479 48.7583C65.4479 49.4884 65.5012 50.2108 65.6076 50.9256C65.7293 51.6252 65.965 52.2868 66.3148 52.9103C66.3909 53.0472 66.4973 53.2069 66.6342 53.3894C66.7863 53.5567 66.9536 53.6403 67.1361 53.6403C67.273 53.6403 67.4098 53.5263 67.5467 53.2981C67.6988 53.07 67.8357 52.8039 67.9574 52.4997C68.079 52.1955 68.1779 51.8989 68.2539 51.61C68.33 51.321 68.3832 51.1081 68.4136 50.9712C68.4288 50.9104 68.4364 50.8419 68.4364 50.7659C68.4364 50.6898 68.4364 50.6138 68.4364 50.5378C68.4364 50.4009 68.4364 50.2716 68.4364 50.1499C68.4516 50.0131 68.4744 49.9066 68.5049 49.8306C68.6113 49.572 68.7482 49.3971 68.9155 49.3059C69.098 49.2146 69.3185 49.169 69.5771 49.169C69.8052 49.169 70.0485 49.1994 70.3071 49.2602C70.5656 49.3211 70.809 49.4199 71.0371 49.5568C71.2652 49.6937 71.4553 49.8686 71.6074 50.0815C71.7595 50.2944 71.8356 50.5454 71.8356 50.8343Z" fill="white"/>
<path d="M46.65 55.8304C46.65 56.1802 46.5435 56.4083 46.3306 56.5147C46.1329 56.6212 45.8895 56.6744 45.6006 56.6744C45.342 56.6744 45.0835 56.6516 44.8249 56.606C44.5816 56.5756 44.3459 56.5071 44.1177 56.4007C43.9048 56.2942 43.7147 56.1497 43.5474 55.9672C43.3953 55.7847 43.2889 55.549 43.228 55.26C43.0151 54.3475 42.8934 53.4578 42.863 52.5909C42.8326 51.7088 42.8174 50.8039 42.8174 49.8762V47.0702C42.8174 45.7926 42.8706 44.4695 42.9771 43.1007C43.0835 41.7167 43.1976 40.3859 43.3193 39.1084C43.3193 39.0628 43.3269 39.0096 43.3421 38.9487C43.3573 38.8879 43.3649 38.8423 43.3649 38.8118C43.3801 38.6446 43.4029 38.462 43.4333 38.2643C43.4638 38.0666 43.5094 37.8917 43.5702 37.7396C43.6463 37.5723 43.7451 37.4355 43.8668 37.329C44.0037 37.2225 44.1786 37.1693 44.3915 37.1693C44.6348 37.1693 44.8629 37.2225 45.0759 37.329C45.304 37.4203 45.5017 37.5495 45.669 37.7168C45.8363 37.8689 45.9656 38.059 46.0568 38.2871C46.1633 38.5153 46.2165 38.751 46.2165 38.9944C46.2165 39.2985 46.2013 39.6179 46.1709 39.9525C46.1557 40.2719 46.1329 40.5837 46.1025 40.8878C46.072 41.1008 46.0492 41.2604 46.034 41.3669C46.034 41.4734 46.0264 41.6483 46.0112 41.8916C46.1937 41.5722 46.399 41.2528 46.6272 40.9335C46.8705 40.5989 47.1366 40.3099 47.4256 40.0666C47.7146 39.808 48.0264 39.6027 48.3609 39.4506C48.7107 39.2833 49.0834 39.1997 49.4788 39.1997C49.8742 39.1997 50.2012 39.2681 50.4597 39.405C50.7183 39.5267 50.9236 39.7016 51.0757 39.9297C51.2278 40.1426 51.3342 40.4012 51.3951 40.7053C51.4559 41.0095 51.4863 41.3289 51.4863 41.6635C51.4863 41.8764 51.4787 42.0817 51.4635 42.2794C51.4635 42.4771 51.4559 42.6749 51.4407 42.8726C51.4255 43.0703 51.4103 43.268 51.3951 43.4657C51.3951 43.6482 51.3951 43.8459 51.3951 44.0588C51.3951 44.4543 51.4027 44.8345 51.4179 45.1995C51.4483 45.5493 51.4787 45.9219 51.5091 46.3173C51.6612 45.8154 51.8437 45.2451 52.0567 44.6064C52.2848 43.9676 52.5433 43.3136 52.8323 42.6444C53.1365 41.9753 53.4635 41.3213 53.8133 40.6825C54.1783 40.0285 54.5661 39.4506 54.9767 38.9487C55.4026 38.4468 55.8588 38.0438 56.3455 37.7396C56.8322 37.4203 57.3417 37.2606 57.874 37.2606C58.7104 37.2606 59.296 37.5039 59.6306 37.9906C59.9804 38.4773 60.1553 39.1008 60.1553 39.8612C60.1553 40.0742 60.1477 40.3023 60.1325 40.5456C60.1172 40.7738 60.0944 40.9943 60.064 41.2072C59.988 42.0285 59.9271 42.8726 59.8815 43.7395C59.8511 44.6064 59.8359 45.4504 59.8359 46.2717V46.7051C59.8359 47.7698 59.8815 48.7735 59.9728 49.7165C60.064 50.6594 60.2465 51.6556 60.5203 52.705L60.7028 53.3209C60.7636 53.5338 60.8321 53.7696 60.9081 54.0281C60.9994 54.2867 61.0754 54.5376 61.1362 54.781C61.1971 55.0243 61.2503 55.2524 61.2959 55.4653C61.3415 55.6783 61.3644 55.8456 61.3644 55.9672C61.3644 56.2866 61.2503 56.4995 61.0222 56.606C60.794 56.7125 60.5583 56.7657 60.315 56.7657C60.1629 56.7657 59.988 56.7581 59.7903 56.7429C59.5925 56.7429 59.3948 56.7201 59.1971 56.6744C59.0146 56.644 58.8321 56.5908 58.6496 56.5147C58.4823 56.4387 58.3454 56.3398 58.239 56.2182V56.241C58.1021 56.1041 58.0032 55.9368 57.9424 55.7391C57.8816 55.5414 57.8359 55.3437 57.8055 55.146L57.7599 54.9406C57.547 54.1194 57.3645 53.3818 57.2124 52.7278C57.0755 52.0738 56.9614 51.4198 56.8702 50.7659C56.7789 50.1119 56.7105 49.4351 56.6649 48.7355C56.6345 48.0359 56.6193 47.2298 56.6193 46.3173C56.6193 45.5417 56.6497 44.7508 56.7105 43.9448C56.7865 43.1387 56.8626 42.3479 56.9386 41.5722C56.9386 41.4962 56.9386 41.4125 56.9386 41.3213C56.9538 41.2148 56.9691 41.1236 56.9843 41.0475C56.4063 41.9448 55.8968 42.9334 55.4558 44.0132C55.0299 45.0778 54.6421 46.1728 54.2923 47.2983C53.9577 48.4237 53.6612 49.5568 53.4026 50.6974C53.1593 51.8229 52.9388 52.8951 52.741 53.9141C52.741 53.9293 52.7715 54.0205 52.8323 54.1878C52.9083 54.3399 52.9768 54.5224 53.0376 54.7353C53.1137 54.933 53.1821 55.1308 53.2429 55.3285C53.3038 55.511 53.3342 55.6326 53.3342 55.6935C53.3342 56.0433 53.2201 56.2562 52.992 56.3322C52.7639 56.4083 52.5281 56.4463 52.2848 56.4463C52.1023 56.4463 51.9046 56.4387 51.6916 56.4235C51.4787 56.4083 51.2658 56.3703 51.0529 56.3094C50.8552 56.2486 50.6651 56.1649 50.4826 56.0585C50.3153 55.9672 50.1784 55.8304 50.0719 55.6478C49.9807 55.4958 49.8742 55.1384 49.7525 54.5756C49.6309 53.9977 49.5016 53.3285 49.3647 52.5681C49.2278 51.7924 49.0986 50.9636 48.9769 50.0815C48.8552 49.1994 48.7412 48.3629 48.6347 47.572C48.5282 46.7812 48.4446 46.0892 48.3838 45.4961C48.3229 44.9029 48.2925 44.4999 48.2925 44.287V43.9448C47.8058 44.9942 47.4028 46.1196 47.0834 47.3211C46.764 48.5226 46.5207 49.7013 46.3534 50.8571L46.2621 51.2678C46.2317 51.3894 46.2089 51.5111 46.1937 51.6328C46.1785 51.7392 46.1709 51.8457 46.1709 51.9521C46.1709 52.1194 46.1861 52.3248 46.2165 52.5681C46.2621 52.8114 46.3154 53.0776 46.3762 53.3665C46.4523 53.762 46.5131 54.1726 46.5587 54.5984C46.6196 55.0091 46.65 55.4197 46.65 55.8304Z" fill="white"/>
<path d="M33.5782 36.0058C33.5782 36.2188 33.5325 36.4165 33.4413 36.599C33.35 36.8575 33.2588 37.0704 33.1675 37.2377C33.0915 37.405 32.9926 37.5343 32.871 37.6256C32.7493 37.7168 32.5972 37.7852 32.4147 37.8309C32.2474 37.8613 32.0269 37.8765 31.7531 37.8765H25.548C25.4415 37.8765 25.3046 37.8765 25.1374 37.8765C24.9853 37.8613 24.8256 37.8385 24.6583 37.8081C24.5062 37.7624 24.3693 37.7016 24.2476 37.6256C24.1412 37.5343 24.088 37.405 24.088 37.2377C24.088 36.8727 24.2172 36.5533 24.4758 36.2796C24.7343 35.9906 25.0461 35.8081 25.4111 35.7321C25.7153 35.6864 26.0195 35.6636 26.3236 35.6636C26.6278 35.6484 26.932 35.6256 27.2361 35.5952C28.103 35.5496 28.9699 35.5039 29.8368 35.4583C30.7037 35.3975 31.5858 35.3671 32.4831 35.3671C32.5896 35.3671 32.7037 35.3747 32.8253 35.3899C32.9622 35.3899 33.0839 35.4127 33.1903 35.4583C33.312 35.4887 33.4033 35.5496 33.4641 35.6408C33.5401 35.7321 33.5782 35.8537 33.5782 36.0058ZM33.715 41.1616C33.715 41.3137 33.677 41.481 33.601 41.6635C33.5249 41.846 33.4261 42.0285 33.3044 42.211C33.1979 42.3783 33.0763 42.5304 32.9394 42.6672C32.8025 42.8041 32.6656 42.8954 32.5288 42.941C32.4071 42.9714 32.3006 42.9866 32.2094 42.9866C32.1181 42.9866 32.0117 42.9866 31.89 42.9866C31.4337 42.9866 30.9775 42.9714 30.5212 42.941C30.065 42.9106 29.6087 42.8954 29.1524 42.8954C28.4833 42.8954 27.8141 42.9106 27.1449 42.941C26.4757 42.9714 25.8065 42.9866 25.1374 42.9866C25.0157 42.9866 24.894 42.9866 24.7723 42.9866C24.6507 42.9714 24.5366 42.9486 24.4301 42.9182C24.3389 42.8725 24.2552 42.8117 24.1792 42.7357C24.1184 42.6596 24.088 42.5456 24.088 42.3935C24.088 41.998 24.2096 41.6711 24.453 41.4125C24.6963 41.1388 25.0005 40.9639 25.3655 40.8878C25.6697 40.8118 25.9738 40.7737 26.278 40.7737C26.5974 40.7585 26.9168 40.7357 27.2361 40.7053C28.0118 40.6293 28.795 40.576 29.5859 40.5456C30.3767 40.5 31.1752 40.4772 31.9813 40.4772C32.0877 40.4772 32.2398 40.4848 32.4375 40.5C32.6352 40.5 32.8253 40.5228 33.0078 40.5684C33.2056 40.6141 33.3728 40.6825 33.5097 40.7737C33.6466 40.865 33.715 40.9943 33.715 41.1616Z" fill="white"/>
<path d="M16.4001 50.9712C16.4001 51.2297 16.2936 51.4807 16.0807 51.724C15.883 51.9673 15.6396 52.2031 15.3507 52.4312C15.0617 52.6593 14.7651 52.8722 14.461 53.07C14.1568 53.2525 13.9058 53.4046 13.7081 53.5262C13.191 53.8608 12.6739 54.1726 12.1568 54.4616C11.655 54.7505 11.1303 55.0015 10.5827 55.2144C10.0504 55.4273 9.49533 55.5946 8.9174 55.7163C8.35467 55.8379 7.76154 55.8988 7.13798 55.8988L6.77297 55.9444C6.27109 55.9444 5.7692 55.8912 5.26731 55.7847C4.78064 55.663 4.32438 55.4881 3.89853 55.26C3.47269 55.0167 3.09247 54.7125 2.75788 54.3475C2.42329 53.9825 2.16474 53.5414 1.98224 53.0243C1.84536 52.6137 1.7389 52.127 1.66286 51.5643C1.58681 51.0016 1.52598 50.416 1.48035 49.8077C1.44994 49.1994 1.41952 48.6062 1.3891 48.0283C1.37389 47.4351 1.35868 46.9104 1.34348 46.4542C1.11535 41.8003 0.932842 37.1465 0.795964 32.4926C0.765547 31.9603 0.742734 31.428 0.727525 30.8957C0.712316 30.3634 0.704712 29.8311 0.704712 29.2988C0.704712 28.3863 0.757942 27.6106 0.864403 26.9719C0.970864 26.3331 1.18379 25.8084 1.50317 25.3978C1.82255 24.9871 2.27881 24.6906 2.87195 24.5081C3.48029 24.3256 4.27875 24.2343 5.26731 24.2343C6.25588 24.2343 7.24444 24.2419 8.23301 24.2571C9.23678 24.2723 10.2406 24.2799 11.2443 24.2799C11.5485 24.2799 11.8527 24.2723 12.1568 24.2571C12.461 24.2267 12.7652 24.2495 13.0694 24.3256C13.2519 24.356 13.4116 24.4092 13.5484 24.4853C13.6853 24.5461 13.7538 24.6906 13.7538 24.9187C13.7538 25.4662 13.5712 25.8769 13.2062 26.1506C12.8412 26.4092 12.4078 26.5841 11.9059 26.6753C11.404 26.7666 10.8793 26.8122 10.3318 26.8122C9.7995 26.797 9.35845 26.7894 9.00865 26.7894H6.04296C5.73878 26.7894 5.43461 26.7894 5.13044 26.7894C4.82626 26.7894 4.52209 26.8046 4.21792 26.835C4.12666 27.0631 4.06583 27.2989 4.03541 27.5422C4.00499 27.7855 3.98979 28.0365 3.98979 28.295C3.98979 29.9528 4.02781 31.5877 4.10385 33.1998C4.1951 34.8119 4.27875 36.4469 4.35479 38.1046C5.29773 38.0286 6.23306 37.9373 7.16079 37.8309C8.08852 37.7244 9.02386 37.6027 9.96679 37.4659C10.1037 37.4659 10.2253 37.4583 10.3318 37.443C10.4535 37.4278 10.5751 37.4202 10.6968 37.4202C11.0162 37.4202 11.2367 37.5039 11.3584 37.6712C11.4953 37.8385 11.5637 38.0742 11.5637 38.3784C11.5637 38.5913 11.5485 38.789 11.5181 38.9715C11.5029 39.154 11.4572 39.3365 11.3812 39.519C11.2747 39.8232 11.0998 40.0437 10.8565 40.1806C10.6132 40.3175 10.3394 40.4163 10.0352 40.4772C9.73106 40.5228 9.41168 40.5456 9.07709 40.5456C8.7577 40.5456 8.47634 40.5532 8.23301 40.5684C7.59424 40.5988 6.96308 40.6217 6.33953 40.6369C5.73118 40.6521 5.11523 40.6749 4.49167 40.7053C4.50688 41.0247 4.52969 41.5038 4.56011 42.1425C4.59053 42.7813 4.62095 43.5037 4.65136 44.3098C4.69699 45.1006 4.74261 45.9219 4.78824 46.7736C4.84908 47.6253 4.90991 48.4313 4.97074 49.1917C5.03158 49.937 5.10002 50.5909 5.17606 51.1537C5.25211 51.7164 5.32815 52.0966 5.40419 52.2943C5.57149 52.6137 5.7616 52.8266 5.97452 52.9331C6.18744 53.0243 6.4688 53.07 6.8186 53.07C7.38132 53.07 7.97446 52.9635 8.59801 52.7506C9.22157 52.5224 9.82992 52.2411 10.4231 51.9065C11.0162 51.5567 11.5789 51.1765 12.1112 50.7658C12.6587 50.3552 13.1302 49.9522 13.5256 49.5568C13.6929 49.4199 13.8602 49.283 14.0275 49.1461C14.1948 48.994 14.3925 48.918 14.6206 48.918C14.8488 48.918 15.0693 48.9864 15.2822 49.1233C15.4951 49.2602 15.6853 49.4351 15.8525 49.648C16.0198 49.8457 16.1491 50.0662 16.2404 50.3096C16.3468 50.5529 16.4001 50.7735 16.4001 50.9712Z" fill="white"/>
</svg>
