<svg width="80" height="81" viewBox="0 0 80 81" fill="none" xmlns="http://www.w3.org/2000/svg">
<path d="M59.6667 58.4667C58.8 55.8 56.3 53.8334 53.3333 53.8334H50V43.8334C50 42.9493 49.6488 42.1015 49.0237 41.4763C48.3986 40.8512 47.5507 40.5 46.6667 40.5H26.6667V33.8334H33.3333C34.2174 33.8334 35.0652 33.4822 35.6904 32.857C36.3155 32.2319 36.6667 31.3841 36.6667 30.5V23.8334H43.3333C45.1014 23.8334 46.7971 23.131 48.0474 21.8807C49.2976 20.6305 50 18.9348 50 17.1667V15.8C53.9883 17.4079 57.5275 19.9583 60.3148 23.2328C63.102 26.5073 65.0543 30.4085 66.0045 34.6024C66.9547 38.7963 66.8744 43.1579 65.7707 47.314C64.6669 51.4701 62.5725 55.2969 59.6667 58.4667ZM36.6667 66.9334C23.5 65.3 13.3333 54.1 13.3333 40.5C13.3333 38.4334 13.6 36.4334 14.0333 34.5334L30 50.5V53.8334C30 55.6015 30.7024 57.2972 31.9526 58.5474C33.2029 59.7976 34.8986 60.5 36.6667 60.5M40 7.16669C35.6226 7.16669 31.2881 8.02888 27.2439 9.70404C23.1997 11.3792 19.5251 13.8345 16.4298 16.9298C10.1786 23.181 6.66667 31.6595 6.66667 40.5C6.66667 49.3406 10.1786 57.819 16.4298 64.0702C19.5251 67.1655 23.1997 69.6208 27.2439 71.296C31.2881 72.9712 35.6226 73.8334 40 73.8334C48.8405 73.8334 57.319 70.3215 63.5702 64.0702C69.8214 57.819 73.3333 49.3406 73.3333 40.5C73.3333 36.1226 72.4711 31.7881 70.796 27.7439C69.1208 23.6997 66.6655 20.0251 63.5702 16.9298C60.4749 13.8345 56.8003 11.3792 52.7561 9.70404C48.7119 8.02888 44.3774 7.16669 40 7.16669Z" fill="white"/>
</svg>
