<svg width="29" height="29" viewBox="0 0 29 29" fill="none" xmlns="http://www.w3.org/2000/svg">
<g clip-path="url(#clip0_55_596)">
<path d="M14.7836 0.477539C16.0687 0.477539 17.3083 0.641602 18.5023 0.969727C19.6963 1.29785 20.8129 1.76725 21.8519 2.37793C22.891 2.98861 23.8344 3.71777 24.682 4.56543C25.5297 5.41309 26.2588 6.361 26.8695 7.40918C27.4802 8.45736 27.9496 9.57389 28.2777 10.7588C28.6058 11.9437 28.7745 13.1833 28.7836 14.4775C28.7836 15.7627 28.6195 17.0023 28.2914 18.1963C27.9633 19.3903 27.4939 20.5068 26.8832 21.5459C26.2725 22.585 25.5433 23.5283 24.6957 24.376C23.848 25.2236 22.9001 25.9528 21.8519 26.5635C20.8038 27.1742 19.6872 27.6436 18.5023 27.9717C17.3174 28.2998 16.0778 28.4684 14.7836 28.4775C13.4984 28.4775 12.2588 28.3135 11.0648 27.9854C9.87081 27.6572 8.75427 27.1878 7.71521 26.5771C6.67615 25.9665 5.73279 25.2373 4.88513 24.3896C4.03748 23.542 3.30831 22.5941 2.69763 21.5459C2.08695 20.4977 1.61755 19.3857 1.28943 18.21C0.961304 17.0342 0.792684 15.79 0.783569 14.4775C0.783569 13.1924 0.947632 11.9528 1.27576 10.7588C1.60388 9.56478 2.07328 8.44824 2.68396 7.40918C3.29464 6.37012 4.0238 5.42676 4.87146 4.5791C5.71912 3.73145 6.66703 3.00228 7.71521 2.3916C8.76339 1.78092 9.87537 1.31152 11.0511 0.983398C12.2269 0.655273 13.4711 0.486654 14.7836 0.477539ZM14.7836 26.7275C15.9047 26.7275 16.9847 26.5817 18.0238 26.29C19.0629 25.9984 20.0381 25.5882 20.9496 25.0596C21.861 24.5309 22.6905 23.8883 23.4379 23.1318C24.1853 22.3753 24.8233 21.5505 25.3519 20.6572C25.8806 19.764 26.2953 18.7887 26.5961 17.7314C26.8969 16.6742 27.0427 15.5895 27.0336 14.4775C27.0336 13.3564 26.8877 12.2764 26.5961 11.2373C26.3044 10.1982 25.8942 9.22298 25.3656 8.31152C24.837 7.40006 24.1944 6.57064 23.4379 5.82324C22.6814 5.07585 21.8565 4.43783 20.9633 3.90918C20.07 3.38053 19.0948 2.96582 18.0375 2.66504C16.9802 2.36426 15.8955 2.21842 14.7836 2.22754C13.6625 2.22754 12.5824 2.37337 11.5433 2.66504C10.5043 2.95671 9.52901 3.36686 8.61755 3.89551C7.7061 4.42415 6.87667 5.06673 6.12927 5.82324C5.38188 6.57975 4.74386 7.40462 4.21521 8.29785C3.68656 9.19108 3.27185 10.1663 2.97107 11.2236C2.67029 12.2809 2.52445 13.3656 2.53357 14.4775C2.53357 15.5986 2.6794 16.6787 2.97107 17.7178C3.26274 18.7568 3.67289 19.7321 4.20154 20.6436C4.73018 21.555 5.37276 22.3844 6.12927 23.1318C6.88578 23.8792 7.71065 24.5173 8.60388 25.0459C9.49711 25.5745 10.4724 25.9893 11.5297 26.29C12.587 26.5908 13.6716 26.7367 14.7836 26.7275ZM22.9457 14.6963L23.6019 12.7275H24.6273L23.4652 16.2275H22.4398L21.7836 14.2588L21.1273 16.2275H20.1019L18.9398 12.7275H19.9652L20.6215 14.6963L21.2777 12.7275H22.2894L22.9457 14.6963ZM16.6019 12.7275H17.6273L16.4652 16.2275H15.4398L14.7836 14.2588L14.1273 16.2275H13.1019L11.9398 12.7275H12.9652L13.6215 14.6963L14.2777 12.7275H15.2894L15.9457 14.6963L16.6019 12.7275ZM9.60193 12.7275H10.6273L9.46521 16.2275H8.43982L7.78357 14.2588L7.12732 16.2275H6.10193L4.93982 12.7275H5.96521L6.62146 14.6963L7.27771 12.7275H8.28943L8.94568 14.6963L9.60193 12.7275Z" fill="#4C9FFF"/>
</g>
<defs>
<clipPath id="clip0_55_596">
<rect width="28" height="28" fill="white" transform="translate(0.783569 0.477539)"/>
</clipPath>
</defs>
</svg>
