<svg width="29" height="29" viewBox="0 0 29 29" fill="none" xmlns="http://www.w3.org/2000/svg">
<path d="M5.53394 23.5953C4.89821 23.5953 4.35378 23.3687 3.90068 22.9156C3.44757 22.4625 3.2214 21.9185 3.22217 21.2835V7.41285C3.22217 6.77711 3.44872 6.23269 3.90183 5.77958C4.35494 5.32647 4.89898 5.10031 5.53394 5.10108H24.0281C24.6639 5.10108 25.2083 5.32763 25.6614 5.78074C26.1145 6.23385 26.3407 6.77788 26.3399 7.41285V21.2835C26.3399 21.9192 26.1134 22.4637 25.6603 22.9168C25.2071 23.3699 24.6631 23.596 24.0281 23.5953H5.53394ZM14.781 15.5041L24.0281 9.72463V7.41285L14.781 13.1923L5.53394 7.41285V9.72463L14.781 15.5041Z" fill="#4C9FFF"/>
</svg>
