<svg width="29" height="29" viewBox="0 0 29 29" fill="none" xmlns="http://www.w3.org/2000/svg">
<path d="M8.47783 12.9497C10.1423 16.2208 12.824 18.8909 16.0951 20.567L18.6381 18.024C18.9502 17.7119 19.4125 17.6079 19.8171 17.7466C21.1117 18.1743 22.5103 18.4055 23.9436 18.4055C24.5793 18.4055 25.0995 18.9256 25.0995 19.5613V23.5954C25.0995 24.2311 24.5793 24.7513 23.9436 24.7513C13.0898 24.7513 4.29352 15.955 4.29352 5.1012C4.29352 4.46546 4.81367 3.94531 5.44941 3.94531H9.49501C10.1307 3.94531 10.6509 4.46546 10.6509 5.1012C10.6509 6.54606 10.8821 7.93312 11.3098 9.22772C11.4369 9.63228 11.3444 10.0831 11.0208 10.4067L8.47783 12.9497Z" fill="#4C9FFF"/>
</svg>
