<svg width="200" height="200" viewBox="0 0 200 200" fill="none" xmlns="http://www.w3.org/2000/svg">
<path d="M151.417 37H140.25C131.833 37 125 43.8333 125 52.25V56L45.8335 73V68.75C45.8335 65.3333 43.0002 62.5 39.5835 62.5C36.1668 62.5 33.3335 65.3333 33.3335 68.75V127.083C33.3335 130.5 36.1668 133.333 39.5835 133.333C43.0002 133.333 45.8335 130.5 45.8335 127.083V121.833L125 138.833V142.583C125 151 131.833 157.833 140.25 157.833H151.417C159.833 157.833 166.667 151 166.667 142.583V52.25C166.667 43.8333 159.833 37 151.417 37ZM45.8335 109V85.75L125 68.75V126L45.8335 109ZM154.167 142.583C154.167 144.083 152.917 145.333 151.417 145.333H140.25C138.75 145.333 137.5 144.083 137.5 142.583V52.25C137.5 50.75 138.75 49.5 140.25 49.5H151.417C152.917 49.5 154.167 50.75 154.167 52.25V142.583ZM108.083 146.917C106.582 151.631 103.614 155.743 99.6112 158.651C95.6085 161.559 90.7811 163.112 85.8335 163.083C73.0002 163.083 62.5002 152.75 62.5002 140.167C62.5002 139.25 62.5002 138.25 62.6668 137.333C63.0835 133.917 66.2502 131.5 69.6668 131.917C73.0835 132.333 75.5002 135.417 75.0835 138.833V140.083C75.0835 145.833 79.9168 150.5 85.9168 150.5C90.6668 150.5 94.8335 147.5 96.2502 143.083C97.2502 139.75 100.833 137.917 104.083 139C107.417 140 109.167 143.583 108.167 146.833L108.083 146.917Z" fill="white"/>
</svg>
