<svg width="81" height="81" viewBox="0 0 81 81" fill="none" xmlns="http://www.w3.org/2000/svg">
<path d="M65.5 7.91113H23C20.3478 7.91113 17.8043 8.9647 15.9289 10.8401C14.0536 12.7154 13 15.259 13 17.9111V70.4111C13 71.0742 13.2634 71.7101 13.7322 72.1789C14.2011 72.6477 14.837 72.9111 15.5 72.9111H60.5C61.163 72.9111 61.7989 72.6477 62.2678 72.1789C62.7366 71.7101 63 71.0742 63 70.4111C63 69.7481 62.7366 69.1122 62.2678 68.6434C61.7989 68.1745 61.163 67.9111 60.5 67.9111H18C18 66.585 18.5268 65.3133 19.4645 64.3756C20.4021 63.4379 21.6739 62.9111 23 62.9111H65.5C66.163 62.9111 66.7989 62.6477 67.2678 62.1789C67.7366 61.7101 68 61.0742 68 60.4111V10.4111C68 9.74809 67.7366 9.11221 67.2678 8.64337C66.7989 8.17452 66.163 7.91113 65.5 7.91113ZM63 57.9111H23C21.2442 57.9087 19.5191 58.3713 18 59.2518V17.9111C18 16.5851 18.5268 15.3133 19.4645 14.3756C20.4021 13.4379 21.6739 12.9111 23 12.9111H63V57.9111Z" fill="white"/>
</svg>
