<svg width="53" height="61" viewBox="0 0 53 61" fill="none" xmlns="http://www.w3.org/2000/svg">
<path d="M52.5 35.4111H47.5L42.5 45.1536L37.5 35.4111H32.5L39.7625 47.9111L32.5 60.4111H37.5L42.5 50.9136L47.5 60.4111H52.5L45.245 47.9111L52.5 35.4111ZM35 5.41113V0.411127H22.2825C21.033 0.405251 19.8271 0.869756 18.9044 1.71231C17.9817 2.55486 17.4099 3.71375 17.3025 4.95863L15.675 22.9111H5V27.9111H15.2175L12.7175 55.4111H0V60.4111H12.7175C13.967 60.417 15.1729 59.9525 16.0956 59.11C17.0183 58.2674 17.5901 57.1085 17.6975 55.8636L20.2375 27.9111H32.5V22.9111H20.6925L22.2825 5.41113H35Z" fill="white"/>
</svg>
