<svg width="81" height="81" viewBox="0 0 81 81" fill="none" xmlns="http://www.w3.org/2000/svg">
<path d="M79.7953 40.9815C79.7953 41.2704 79.7345 41.5138 79.6128 41.7115C79.5368 41.8788 79.3999 42.0081 79.2022 42.0993C79.0197 42.1754 78.8144 42.2286 78.5862 42.259C78.3733 42.2742 78.1528 42.2818 77.9247 42.2818C77.7117 42.2818 77.5292 42.2894 77.3771 42.3046C77.0121 42.3046 76.6471 42.3198 76.2821 42.3503C75.9171 42.3807 75.5521 42.4111 75.1871 42.4415C75.0046 42.624 74.7765 42.7153 74.5027 42.7153C74.3658 42.7153 74.1985 42.6924 74.0008 42.6468C73.8183 42.586 73.6358 42.5099 73.4533 42.4187C73.2708 42.3122 73.1187 42.1906 72.997 42.0537C72.8754 41.9016 72.8145 41.7419 72.8145 41.5746C72.8145 41.3921 72.8602 41.2172 72.9514 41.0499C73.0579 40.8674 73.1491 40.6925 73.2252 40.5252C73.4077 40.145 73.6358 39.6659 73.9096 39.088C74.1833 38.5101 74.4647 37.8865 74.7537 37.2173C75.0578 36.5481 75.3544 35.8561 75.6434 35.1413C75.9323 34.4265 76.1909 33.7345 76.419 33.0654C76.6471 32.381 76.8296 31.7498 76.9665 31.1719C77.1186 30.5787 77.1946 30.0769 77.1946 29.6662C77.1946 29.5293 77.187 29.362 77.1718 29.1643C77.1718 28.9666 77.149 28.7765 77.1034 28.594C77.0578 28.4115 76.9817 28.2594 76.8753 28.1377C76.784 28.0009 76.6471 27.9324 76.4646 27.9324C76.2061 27.9324 75.9627 28.0237 75.7346 28.2062C75.5217 28.3887 75.324 28.6092 75.1415 28.8678C74.9742 29.1111 74.8297 29.3773 74.708 29.6662C74.6016 29.9552 74.5179 30.1985 74.4571 30.3962C74.381 30.6092 74.2974 30.7841 74.2061 30.9209C74.1149 31.0578 73.94 31.1263 73.6814 31.1263C73.5141 31.1263 73.3392 31.1034 73.1567 31.0578C72.9894 31.0122 72.8298 30.9437 72.6777 30.8525C72.5408 30.7612 72.4191 30.6472 72.3127 30.5103C72.2214 30.3734 72.1758 30.2137 72.1758 30.0312C72.1758 29.8031 72.2214 29.5902 72.3127 29.3925C72.4039 29.1795 72.5104 28.9666 72.632 28.7537C73.0275 27.9781 73.5446 27.3545 74.1833 26.883C74.8221 26.3964 75.5977 26.153 76.5103 26.153C77.073 26.153 77.552 26.2443 77.9475 26.4268C78.3429 26.6093 78.6623 26.8602 78.9056 27.1796C79.1642 27.499 79.3543 27.8792 79.4759 28.3203C79.5976 28.7613 79.6584 29.2404 79.6584 29.7575C79.6584 30.5635 79.5292 31.438 79.2706 32.381C79.0121 33.3087 78.6927 34.2516 78.3125 35.2098C77.9323 36.1679 77.5292 37.1109 77.1034 38.0386C76.6928 38.9511 76.3277 39.7952 76.0084 40.5708C76.5103 40.4948 77.0121 40.4264 77.514 40.3655C78.0159 40.2895 78.5178 40.2515 79.0197 40.2515C79.2478 40.2515 79.4303 40.3123 79.5672 40.434C79.7193 40.5404 79.7953 40.7229 79.7953 40.9815Z" fill="white"/>
<path d="M72.3356 50.7455C72.3356 51.0648 72.2823 51.3918 72.1759 51.7264C72.0694 52.061 71.9477 52.3804 71.8109 52.6846C71.6284 53.1256 71.4078 53.5591 71.1493 53.9849C70.8907 54.3955 70.5942 54.7682 70.2596 55.1027C69.925 55.4221 69.5448 55.6807 69.1189 55.8784C68.6931 56.0761 68.214 56.175 67.6817 56.175C66.7388 56.175 65.9555 55.9392 65.332 55.4678C64.7084 54.9963 64.2141 54.4032 63.8491 53.6883C63.4841 52.9735 63.2256 52.1903 63.0735 51.3386C62.9366 50.4869 62.8682 49.6809 62.8682 48.9204C62.8682 48.3577 62.891 47.6961 62.9366 46.9357C62.9822 46.16 63.0659 45.3616 63.1875 44.5403C63.3244 43.7191 63.5145 42.9054 63.7579 42.0993C64.0164 41.2933 64.3434 40.5785 64.7388 39.9549C65.1343 39.3161 65.6133 38.799 66.1761 38.4036C66.754 38.0082 67.4384 37.8105 68.2292 37.8105C68.3965 37.8105 68.6399 37.8409 68.9592 37.9017C69.2786 37.9626 69.5904 38.0538 69.8946 38.1755C70.214 38.282 70.4877 38.434 70.7158 38.6318C70.9592 38.8143 71.0808 39.0272 71.0808 39.2705C71.0808 39.4986 70.9744 39.6735 70.7615 39.7952C70.5638 39.9169 70.3204 40.0081 70.0314 40.069C69.7577 40.1146 69.4687 40.145 69.1646 40.1602C68.8756 40.1602 68.6399 40.1602 68.4574 40.1602H68.0467C67.6209 40.5404 67.2711 41.1032 66.9973 41.8484C66.7236 42.5784 66.5106 43.3617 66.3586 44.1981C66.2065 45.0346 66.1 45.8635 66.0392 46.6847C65.9783 47.4908 65.9479 48.1524 65.9479 48.6695C65.9479 49.3995 66.0012 50.1219 66.1076 50.8367C66.2293 51.5363 66.465 52.1979 66.8148 52.8214C66.8909 52.9583 66.9973 53.118 67.1342 53.3005C67.2863 53.4678 67.4536 53.5515 67.6361 53.5515C67.773 53.5515 67.9098 53.4374 68.0467 53.2093C68.1988 52.9811 68.3357 52.715 68.4574 52.4108C68.579 52.1066 68.6779 51.8101 68.7539 51.5211C68.83 51.2321 68.8832 51.0192 68.9136 50.8823C68.9288 50.8215 68.9364 50.7531 68.9364 50.677C68.9364 50.601 68.9364 50.5249 68.9364 50.4489C68.9364 50.312 68.9364 50.1827 68.9364 50.0611C68.9516 49.9242 68.9744 49.8177 69.0049 49.7417C69.1113 49.4831 69.2482 49.3082 69.4155 49.217C69.598 49.1257 69.8185 49.0801 70.0771 49.0801C70.3052 49.0801 70.5485 49.1105 70.8071 49.1714C71.0656 49.2322 71.309 49.3311 71.5371 49.4679C71.7652 49.6048 71.9553 49.7797 72.1074 49.9926C72.2595 50.2056 72.3356 50.4565 72.3356 50.7455Z" fill="white"/>
<path d="M47.15 55.7415C47.15 56.0913 47.0435 56.3194 46.8306 56.4259C46.6329 56.5323 46.3895 56.5856 46.1006 56.5856C45.842 56.5856 45.5835 56.5628 45.3249 56.5171C45.0816 56.4867 44.8459 56.4183 44.6177 56.3118C44.4048 56.2054 44.2147 56.0609 44.0474 55.8784C43.8953 55.6959 43.7889 55.4601 43.728 55.1712C43.5151 54.2586 43.3934 53.3689 43.363 52.502C43.3326 51.6199 43.3174 50.715 43.3174 49.7873V46.9813C43.3174 45.7038 43.3706 44.3806 43.4771 43.0118C43.5835 41.6278 43.6976 40.2971 43.8193 39.0196C43.8193 38.9739 43.8269 38.9207 43.8421 38.8599C43.8573 38.799 43.8649 38.7534 43.8649 38.723C43.8801 38.5557 43.9029 38.3732 43.9333 38.1755C43.9638 37.9778 44.0094 37.8029 44.0702 37.6508C44.1463 37.4835 44.2451 37.3466 44.3668 37.2401C44.5037 37.1337 44.6786 37.0804 44.8915 37.0804C45.1348 37.0804 45.3629 37.1337 45.5759 37.2401C45.804 37.3314 46.0017 37.4607 46.169 37.628C46.3363 37.78 46.4656 37.9702 46.5568 38.1983C46.6633 38.4264 46.7165 38.6621 46.7165 38.9055C46.7165 39.2097 46.7013 39.529 46.6709 39.8636C46.6557 40.183 46.6329 40.4948 46.6025 40.799C46.572 41.0119 46.5492 41.1716 46.534 41.278C46.534 41.3845 46.5264 41.5594 46.5112 41.8027C46.6937 41.4834 46.899 41.164 47.1272 40.8446C47.3705 40.51 47.6366 40.221 47.9256 39.9777C48.2146 39.7191 48.5264 39.5138 48.8609 39.3617C49.2107 39.1944 49.5834 39.1108 49.9788 39.1108C50.3742 39.1108 50.7012 39.1792 50.9597 39.3161C51.2183 39.4378 51.4236 39.6127 51.5757 39.8408C51.7278 40.0537 51.8342 40.3123 51.8951 40.6165C51.9559 40.9206 51.9863 41.24 51.9863 41.5746C51.9863 41.7875 51.9787 41.9928 51.9635 42.1906C51.9635 42.3883 51.9559 42.586 51.9407 42.7837C51.9255 42.9814 51.9103 43.1791 51.8951 43.3768C51.8951 43.5593 51.8951 43.7571 51.8951 43.97C51.8951 44.3654 51.9027 44.7456 51.9179 45.1106C51.9483 45.4604 51.9787 45.833 52.0091 46.2285C52.1612 45.7266 52.3437 45.1562 52.5567 44.5175C52.7848 43.8787 53.0433 43.2247 53.3323 42.5556C53.6365 41.8864 53.9635 41.2324 54.3133 40.5936C54.6783 39.9397 55.0661 39.3617 55.4767 38.8599C55.9026 38.358 56.3588 37.9549 56.8455 37.6508C57.3322 37.3314 57.8417 37.1717 58.374 37.1717C59.2104 37.1717 59.796 37.415 60.1306 37.9017C60.4804 38.3884 60.6553 39.0119 60.6553 39.7724C60.6553 39.9853 60.6477 40.2134 60.6325 40.4568C60.6172 40.6849 60.5944 40.9054 60.564 41.1183C60.488 41.9396 60.4271 42.7837 60.3815 43.6506C60.3511 44.5175 60.3359 45.3616 60.3359 46.1828V46.6163C60.3359 47.6809 60.3815 48.6847 60.4728 49.6276C60.564 50.5705 60.7465 51.5667 61.0203 52.6161L61.2028 53.2321C61.2636 53.445 61.3321 53.6807 61.4081 53.9393C61.4994 54.1978 61.5754 54.4487 61.6362 54.6921C61.6971 54.9354 61.7503 55.1636 61.7959 55.3765C61.8415 55.5894 61.8644 55.7567 61.8644 55.8784C61.8644 56.1977 61.7503 56.4107 61.5222 56.5171C61.294 56.6236 61.0583 56.6768 60.815 56.6768C60.6629 56.6768 60.488 56.6692 60.2903 56.654C60.0925 56.654 59.8948 56.6312 59.6971 56.5856C59.5146 56.5551 59.3321 56.5019 59.1496 56.4259C58.9823 56.3498 58.8454 56.251 58.739 56.1293V56.1521C58.6021 56.0152 58.5032 55.8479 58.4424 55.6502C58.3816 55.4525 58.3359 55.2548 58.3055 55.0571L58.2599 54.8518C58.047 54.0305 57.8645 53.2929 57.7124 52.6389C57.5755 51.9849 57.4614 51.331 57.3702 50.677C57.2789 50.023 57.2105 49.3462 57.1649 48.6466C57.1345 47.947 57.1193 47.141 57.1193 46.2285C57.1193 45.4528 57.1497 44.662 57.2105 43.8559C57.2865 43.0498 57.3626 42.259 57.4386 41.4834C57.4386 41.4073 57.4386 41.3237 57.4386 41.2324C57.4538 41.126 57.4691 41.0347 57.4843 40.9587C56.9063 41.856 56.3968 42.8445 55.9558 43.9243C55.5299 44.989 55.1421 46.084 54.7923 47.2094C54.4577 48.3349 54.1612 49.4679 53.9026 50.6086C53.6593 51.734 53.4388 52.8062 53.241 53.8252C53.241 53.8404 53.2715 53.9317 53.3323 54.0989C53.4083 54.251 53.4768 54.4335 53.5376 54.6465C53.6137 54.8442 53.6821 55.0419 53.7429 55.2396C53.8038 55.4221 53.8342 55.5438 53.8342 55.6046C53.8342 55.9544 53.7201 56.1673 53.492 56.2434C53.2639 56.3194 53.0281 56.3574 52.7848 56.3574C52.6023 56.3574 52.4046 56.3498 52.1916 56.3346C51.9787 56.3194 51.7658 56.2814 51.5529 56.2206C51.3552 56.1597 51.1651 56.0761 50.9826 55.9696C50.8153 55.8784 50.6784 55.7415 50.5719 55.559C50.4807 55.4069 50.3742 55.0495 50.2525 54.4868C50.1309 53.9088 50.0016 53.2397 49.8647 52.4792C49.7278 51.7036 49.5986 50.8747 49.4769 49.9926C49.3552 49.1105 49.2412 48.274 49.1347 47.4832C49.0282 46.6923 48.9446 46.0003 48.8838 45.4072C48.8229 44.8141 48.7925 44.411 48.7925 44.1981V43.8559C48.3058 44.9053 47.9028 46.0307 47.5834 47.2322C47.264 48.4337 47.0207 49.6124 46.8534 50.7682L46.7621 51.1789C46.7317 51.3006 46.7089 51.4222 46.6937 51.5439C46.6785 51.6504 46.6709 51.7568 46.6709 51.8633C46.6709 52.0306 46.6861 52.2359 46.7165 52.4792C46.7621 52.7226 46.8154 52.9887 46.8762 53.2777C46.9523 53.6731 47.0131 54.0837 47.0587 54.5096C47.1196 54.9202 47.15 55.3309 47.15 55.7415Z" fill="white"/>
<path d="M34.0781 35.917C34.0781 36.1299 34.0325 36.3276 33.9412 36.5101C33.85 36.7686 33.7587 36.9816 33.6675 37.1489C33.5914 37.3162 33.4926 37.4454 33.3709 37.5367C33.2492 37.6279 33.0971 37.6964 32.9146 37.742C32.7473 37.7724 32.5268 37.7876 32.2531 37.7876H26.0479C25.9415 37.7876 25.8046 37.7876 25.6373 37.7876C25.4852 37.7724 25.3255 37.7496 25.1582 37.7192C25.0061 37.6736 24.8693 37.6127 24.7476 37.5367C24.6411 37.4454 24.5879 37.3162 24.5879 37.1489C24.5879 36.7839 24.7172 36.4645 24.9757 36.1907C25.2343 35.9018 25.546 35.7192 25.911 35.6432C26.2152 35.5976 26.5194 35.5748 26.8236 35.5748C27.1277 35.5596 27.4319 35.5367 27.7361 35.5063C28.603 35.4607 29.4699 35.4151 30.3368 35.3695C31.2037 35.3086 32.0858 35.2782 32.9831 35.2782C33.0895 35.2782 33.2036 35.2858 33.3253 35.301C33.4622 35.301 33.5838 35.3238 33.6903 35.3695C33.812 35.3999 33.9032 35.4607 33.964 35.552C34.0401 35.6432 34.0781 35.7649 34.0781 35.917ZM34.215 41.0727C34.215 41.2248 34.177 41.3921 34.1009 41.5746C34.0249 41.7571 33.926 41.9396 33.8043 42.1221C33.6979 42.2894 33.5762 42.4415 33.4393 42.5784C33.3025 42.7152 33.1656 42.8065 33.0287 42.8521C32.907 42.8825 32.8006 42.8977 32.7093 42.8977C32.6181 42.8977 32.5116 42.8977 32.3899 42.8977C31.9337 42.8977 31.4774 42.8825 31.0212 42.8521C30.5649 42.8217 30.1086 42.8065 29.6524 42.8065C28.9832 42.8065 28.314 42.8217 27.6448 42.8521C26.9757 42.8825 26.3065 42.8977 25.6373 42.8977C25.5156 42.8977 25.394 42.8977 25.2723 42.8977C25.1506 42.8825 25.0365 42.8597 24.9301 42.8293C24.8388 42.7837 24.7552 42.7228 24.6791 42.6468C24.6183 42.5708 24.5879 42.4567 24.5879 42.3046C24.5879 41.9092 24.7096 41.5822 24.9529 41.3236C25.1962 41.0499 25.5004 40.875 25.8654 40.7989C26.1696 40.7229 26.4738 40.6849 26.7779 40.6849C27.0973 40.6697 27.4167 40.6469 27.7361 40.6164C28.5117 40.5404 29.295 40.4872 30.0858 40.4568C30.8767 40.4111 31.6751 40.3883 32.4812 40.3883C32.5877 40.3883 32.7397 40.3959 32.9375 40.4111C33.1352 40.4111 33.3253 40.4339 33.5078 40.4796C33.7055 40.5252 33.8728 40.5936 34.0097 40.6849C34.1465 40.7761 34.215 40.9054 34.215 41.0727Z" fill="white"/>
<path d="M16.9001 50.8823C16.9001 51.1408 16.7936 51.3918 16.5807 51.6351C16.383 51.8785 16.1396 52.1142 15.8507 52.3423C15.5617 52.5705 15.2651 52.7834 14.961 52.9811C14.6568 53.1636 14.4058 53.3157 14.2081 53.4374C13.691 53.7719 13.1739 54.0837 12.6568 54.3727C12.155 54.6617 11.6303 54.9126 11.0827 55.1255C10.5504 55.3384 9.99533 55.5057 9.4174 55.6274C8.85467 55.7491 8.26154 55.8099 7.63798 55.8099L7.27297 55.8555C6.77109 55.8555 6.2692 55.8023 5.76731 55.6958C5.28064 55.5742 4.82438 55.3993 4.39853 55.1711C3.97269 54.9278 3.59247 54.6236 3.25788 54.2586C2.92329 53.8936 2.66474 53.4526 2.48224 52.9355C2.34536 52.5248 2.2389 52.0382 2.16286 51.4754C2.08681 50.9127 2.02598 50.3272 1.98035 49.7188C1.94994 49.1105 1.91952 48.5173 1.8891 47.9394C1.87389 47.3463 1.85868 46.8216 1.84348 46.3653C1.61535 41.7115 1.43284 37.0576 1.29596 32.4038C1.26555 31.8715 1.24273 31.3391 1.22752 30.8068C1.21232 30.2745 1.20471 29.7422 1.20471 29.2099C1.20471 28.2974 1.25794 27.5218 1.3644 26.883C1.47086 26.2442 1.68379 25.7195 2.00317 25.3089C2.32255 24.8983 2.77881 24.6017 3.37195 24.4192C3.98029 24.2367 4.77875 24.1454 5.76731 24.1454C6.75588 24.1454 7.74444 24.1531 8.73301 24.1683C9.73678 24.1835 10.7406 24.1911 11.7443 24.1911C12.0485 24.1911 12.3527 24.1835 12.6568 24.1683C12.961 24.1378 13.2652 24.1607 13.5694 24.2367C13.7519 24.2671 13.9116 24.3203 14.0484 24.3964C14.1853 24.4572 14.2538 24.6017 14.2538 24.8298C14.2538 25.3773 14.0712 25.788 13.7062 26.0617C13.3412 26.3203 12.9078 26.4952 12.4059 26.5864C11.904 26.6777 11.3793 26.7233 10.8318 26.7233C10.2995 26.7081 9.85845 26.7005 9.50865 26.7005H6.54296C6.23878 26.7005 5.93461 26.7005 5.63044 26.7005C5.32626 26.7005 5.02209 26.7157 4.71792 26.7461C4.62666 26.9743 4.56583 27.21 4.53541 27.4533C4.50499 27.6967 4.48979 27.9476 4.48979 28.2062C4.48979 29.8639 4.52781 31.4988 4.60385 33.111C4.6951 34.7231 4.77875 36.358 4.85479 38.0158C5.79773 37.9397 6.73306 37.8485 7.66079 37.742C8.58852 37.6355 9.52386 37.5139 10.4668 37.377C10.6037 37.377 10.7253 37.3694 10.8318 37.3542C10.9535 37.339 11.0751 37.3314 11.1968 37.3314C11.5162 37.3314 11.7367 37.415 11.8584 37.5823C11.9953 37.7496 12.0637 37.9853 12.0637 38.2895C12.0637 38.5024 12.0485 38.7001 12.0181 38.8827C12.0029 39.0652 11.9572 39.2477 11.8812 39.4302C11.7747 39.7343 11.5998 39.9549 11.3565 40.0917C11.1132 40.2286 10.8394 40.3275 10.5352 40.3883C10.2311 40.4339 9.91168 40.4567 9.57709 40.4567C9.2577 40.4567 8.97634 40.4644 8.73301 40.4796C8.09424 40.51 7.46308 40.5328 6.83953 40.548C6.23118 40.5632 5.61523 40.586 4.99167 40.6164C5.00688 40.9358 5.02969 41.4149 5.06011 42.0537C5.09053 42.6924 5.12095 43.4148 5.15136 44.2209C5.19699 45.0117 5.24261 45.833 5.28824 46.6847C5.34908 47.5364 5.40991 48.3424 5.47074 49.1029C5.53158 49.8481 5.60002 50.5021 5.67606 51.0648C5.75211 51.6275 5.82815 52.0077 5.90419 52.2055C6.07149 52.5248 6.2616 52.7378 6.47452 52.8442C6.68744 52.9355 6.9688 52.9811 7.3186 52.9811C7.88132 52.9811 8.47446 52.8746 9.09801 52.6617C9.72157 52.4336 10.3299 52.1522 10.9231 51.8176C11.5162 51.4678 12.0789 51.0876 12.6112 50.677C13.1587 50.2663 13.6302 49.8633 14.0256 49.4679C14.1929 49.331 14.3602 49.1941 14.5275 49.0573C14.6948 48.9052 14.8925 48.8291 15.1206 48.8291C15.3488 48.8291 15.5693 48.8976 15.7822 49.0344C15.9951 49.1713 16.1853 49.3462 16.3525 49.5591C16.5198 49.7569 16.6491 49.9774 16.7404 50.2207C16.8468 50.4641 16.9001 50.6846 16.9001 50.8823Z" fill="white"/>
</svg>
