<svg width="81" height="81" viewBox="0 0 81 81" fill="none" xmlns="http://www.w3.org/2000/svg">
<path d="M50.5 4.16113H3V51.6611H30.5V77.9111H78V30.4111H50.5V4.16113ZM23.6727 15.4111L15.827 37.8018H21.125L22.4009 34.1611H30.5V46.6611H8V9.16113H45.5V30.4111H35.0831L29.8281 15.4111H23.6727ZM29.3472 29.1611H24.1528L26.75 21.7489L29.3472 29.1611ZM73 35.4111V72.9111H35.5V35.4111H73Z" fill="white"/>
<path d="M50.0988 57.9861C50.577 58.7542 51.1035 59.4911 51.6752 60.1924C49.8627 61.1699 47.8043 61.6595 45.5 61.6611V66.6611C49.272 66.6611 52.6422 65.6599 55.5 63.7199C58.3578 65.6599 61.728 66.6611 65.5 66.6611V61.6611C63.2005 61.6611 61.1422 61.1712 59.325 60.1913C59.8966 59.4904 60.4231 58.7538 60.9012 57.9861C62.3423 55.6433 63.4021 53.0865 64.0409 50.4111H66.75V45.4111H58V41.6611H53V45.4111H44.25V50.4111H46.9591C47.5979 53.0865 48.6577 55.6433 50.0988 57.9861ZM58.8641 50.4111C58.3468 52.1416 57.6062 53.7972 56.6609 55.3361C56.3078 55.9036 55.9201 56.4488 55.5 56.9686C55.1105 56.4871 54.749 55.9836 54.4172 55.4607C53.4335 53.8874 52.666 52.189 52.1353 50.4111H58.8641Z" fill="white"/>
</svg>
