<svg width="81" height="81" viewBox="0 0 81 81" fill="none" xmlns="http://www.w3.org/2000/svg">
<path d="M60.1666 58.3778C59.3 55.7111 56.8 53.7444 53.8333 53.7444H50.5V43.7444C50.5 42.8604 50.1488 42.0125 49.5236 41.3874C48.8985 40.7623 48.0507 40.4111 47.1666 40.4111H27.1666V33.7444H33.8333C34.7173 33.7444 35.5652 33.3932 36.1903 32.7681C36.8154 32.143 37.1666 31.2951 37.1666 30.4111V23.7444H43.8333C45.6014 23.7444 47.2971 23.042 48.5473 21.7918C49.7976 20.5416 50.5 18.8459 50.5 17.0778V15.7111C54.4882 17.319 58.0274 19.8693 60.8147 23.1439C63.602 26.4184 65.5543 30.3196 66.5044 34.5135C67.4546 38.7073 67.3744 43.069 66.2706 47.2251C65.1669 51.3812 63.0724 55.2079 60.1666 58.3778ZM37.1666 66.8444C24 65.2111 13.8333 54.0111 13.8333 40.4111C13.8333 38.3444 14.1 36.3444 14.5333 34.4444L30.5 50.4111V53.7444C30.5 55.5125 31.2023 57.2082 32.4526 58.4585C33.7028 59.7087 35.3985 60.4111 37.1666 60.4111M40.5 7.07776C36.1226 7.07776 31.788 7.93995 27.7438 9.61511C23.6997 11.2903 20.025 13.7456 16.9297 16.8409C10.6785 23.0921 7.16663 31.5705 7.16663 40.4111C7.16663 49.2516 10.6785 57.7301 16.9297 63.9813C20.025 67.0766 23.6997 69.5319 27.7438 71.2071C31.788 72.8822 36.1226 73.7444 40.5 73.7444C49.3405 73.7444 57.819 70.2325 64.0702 63.9813C70.3214 57.7301 73.8333 49.2516 73.8333 40.4111C73.8333 36.0337 72.9711 31.6992 71.2959 27.655C69.6208 23.6108 67.1655 19.9362 64.0702 16.8409C60.9749 13.7456 57.3003 11.2903 53.2561 9.61511C49.2119 7.93995 44.8774 7.07776 40.5 7.07776Z" fill="white"/>
</svg>
