<svg width="134" height="159" viewBox="0 0 134 159" fill="none" xmlns="http://www.w3.org/2000/svg">
<path d="M0.333336 113.167V33.9999C0.333336 26.6388 2.24445 20.7693 6.06667 16.3916C9.88889 12.0138 14.9222 8.68045 21.1667 6.39156C27.4167 4.10268 34.5361 2.5749 42.525 1.80823C50.5139 1.04156 58.6722 0.661008 67 0.666564C76.1667 0.666564 84.8139 1.0499 92.9417 1.81656C101.069 2.58323 108.153 4.11101 114.192 6.3999C120.231 8.68879 124.986 12.0221 128.458 16.3999C131.931 20.7777 133.667 26.6443 133.667 33.9999V113.167C133.667 121.361 130.856 128.272 125.233 133.9C119.611 139.528 112.7 142.339 104.5 142.333L117 154.833V159H100.333L83.6667 142.333H50.3333L33.6667 159H17V154.833L29.5 142.333C21.3056 142.333 14.3944 139.522 8.76667 133.9C3.13889 128.278 0.327781 121.367 0.333336 113.167ZM67 17.3332C52.2778 17.3332 41.5139 18.2027 34.7083 19.9416C27.9028 21.6805 23.25 23.5888 20.75 25.6666H114.083C112 23.3055 107.522 21.3249 100.65 19.7249C93.7778 18.1249 82.5611 17.3277 67 17.3332ZM17 67.3332H58.6667V42.3332H17V67.3332ZM104.5 83.9999H17H117H104.5ZM75.3333 67.3332H117V42.3332H75.3333V67.3332ZM37.8333 117.333C41.4444 117.333 44.4306 116.153 46.7917 113.792C49.1528 111.43 50.3333 108.444 50.3333 104.833C50.3333 101.222 49.1528 98.236 46.7917 95.8749C44.4306 93.5138 41.4444 92.3332 37.8333 92.3332C34.2222 92.3332 31.2361 93.5138 28.875 95.8749C26.5139 98.236 25.3333 101.222 25.3333 104.833C25.3333 108.444 26.5139 111.43 28.875 113.792C31.2361 116.153 34.2222 117.333 37.8333 117.333ZM96.1667 117.333C99.7778 117.333 102.764 116.153 105.125 113.792C107.486 111.43 108.667 108.444 108.667 104.833C108.667 101.222 107.486 98.236 105.125 95.8749C102.764 93.5138 99.7778 92.3332 96.1667 92.3332C92.5556 92.3332 89.5694 93.5138 87.2083 95.8749C84.8472 98.236 83.6667 101.222 83.6667 104.833C83.6667 108.444 84.8472 111.43 87.2083 113.792C89.5694 116.153 92.5556 117.333 96.1667 117.333ZM29.5 125.667H104.5C108.111 125.667 111.097 124.486 113.458 122.125C115.819 119.764 117 116.778 117 113.167V83.9999H17V113.167C17 116.778 18.1806 119.764 20.5417 122.125C22.9028 124.486 25.8889 125.667 29.5 125.667ZM67 25.6666H114.083H20.75H67Z" fill="white"/>
</svg>
